<svg xmlns="http://www.w3.org/2000/svg" viewBox="0 0 233.2 40.05">
  <defs>
    <style>
      .cls-1 {
        isolation: isolate;
      }

      .cls-2 {
        fill: #fff;
      }
    </style>
  </defs>
  <title>Asset 7</title>
  <g id="Layer_2" data-name="Layer 2">
    <g id="Layer_1-2" data-name="Layer 1">
      <g>
        <g class="cls-1">
          <path class="cls-2" d="M65.4,33.13a.72.72,0,0,1-.76-.76V7.3a.72.72,0,0,1,.76-.76H72.8c7.56,0,13.72,3.88,13.72,13.3s-6.16,13.3-13.72,13.3ZM73,11.48H70.26V28.19H73c4.22,0,7.87-1.9,7.87-8.36S77.25,11.48,73,11.48Z"/>
          <path class="cls-2" d="M99.82,33.59c-6,0-10.18-3.46-10.18-10.71,0-6.61,3.53-10.56,9.35-10.56,5.47,0,9,4,9,10.22v1.79a.65.65,0,0,1-.68.72H95.15c.27,2.7,2.2,3.91,5.28,3.91a11.16,11.16,0,0,0,4.14-.8,1.92,1.92,0,0,1,.65-.19c.27,0,.46.15.57.57l.84,2.58a2.63,2.63,0,0,1,.11.61c0,.23-.11.38-.38.53A15.07,15.07,0,0,1,99.82,33.59ZM95.11,20.94h7.6c-.11-2.43-1.48-4-3.8-4S95.22,18.5,95.11,20.94Z"/>
          <path class="cls-2" d="M121.25,33.59c-6,0-10.18-3.46-10.18-10.71,0-6.61,3.53-10.56,9.35-10.56,5.47,0,9,4,9,10.22v1.79a.65.65,0,0,1-.68.72h-12.2c.27,2.7,2.2,3.91,5.28,3.91a11.16,11.16,0,0,0,4.14-.8,1.92,1.92,0,0,1,.65-.19c.27,0,.46.15.57.57l.84,2.58a2.63,2.63,0,0,1,.11.61c0,.23-.11.38-.38.53A15.07,15.07,0,0,1,121.25,33.59Zm-4.71-12.65h7.6c-.11-2.43-1.48-4-3.8-4S116.66,18.5,116.54,20.94Z"/>
          <path class="cls-2" d="M151.46,22.95c0,7-3.19,10.64-9.65,10.64a11.5,11.5,0,0,1-3.38-.49v6.19a.69.69,0,0,1-.72.76h-3.91a.72.72,0,0,1-.76-.76V14.48c0-.72.23-.95.68-1.1a26.71,26.71,0,0,1,7.49-1.06C148.8,12.31,151.46,16.42,151.46,22.95Zm-10.22-6a10.74,10.74,0,0,0-2.81.27V28.5a8.16,8.16,0,0,0,2.92.46c3,0,4.71-2,4.71-6S144.36,16.95,141.24,16.95Z"/>
          <path class="cls-2" d="M155.46,31.19a1.49,1.49,0,0,1,.11-.53l1.18-2.85c.19-.42.3-.57.57-.57a1.28,1.28,0,0,1,.57.15,12.36,12.36,0,0,0,5.21,1.25c2.55,0,4.07-1.1,4.07-3,0-1.63-.68-2.7-4.1-3.69-5.36-1.56-7.9-3.8-7.9-8.21s3.38-7.71,9.19-7.71A15.35,15.35,0,0,1,171,7.56c.38.23.53.38.53.65a1.33,1.33,0,0,1-.11.49l-1.14,2.85c-.19.42-.34.61-.61.61a1.27,1.27,0,0,1-.57-.15,11.5,11.5,0,0,0-4.52-1c-2.58,0-3.84,1.1-3.84,2.7s.91,2.62,3.8,3.46c5.85,1.71,8.21,4.33,8.21,8.4,0,4.79-3.46,8-9.35,8A16.45,16.45,0,0,1,156,31.92C155.61,31.69,155.46,31.5,155.46,31.19Z"/>
          <path class="cls-2" d="M175.82,22.95c0-6.73,4.07-10.64,10.22-10.64a14.39,14.39,0,0,1,5.28.91.56.56,0,0,1,.38.53,2.63,2.63,0,0,1-.11.61L190.87,17c-.11.42-.3.57-.57.57a1.87,1.87,0,0,1-.57-.11,10.52,10.52,0,0,0-3.38-.53c-2.89,0-5.13,2-5.13,6s2.09,6,5.4,6a10.66,10.66,0,0,0,3.23-.49,1.87,1.87,0,0,1,.57-.11c.27,0,.46.15.57.57l.72,2.58a2.63,2.63,0,0,1,.11.61.55.55,0,0,1-.38.53,14,14,0,0,1-5.32,1C179.93,33.59,175.82,29.67,175.82,22.95Z"/>
          <path class="cls-2" d="M194.4,27c0-4.37,3.08-6.53,8.51-6.53H206v-.49c0-2-1-3-3.65-3a18.14,18.14,0,0,0-4.56.76,2.6,2.6,0,0,1-.49.08.64.64,0,0,1-.68-.61l-.68-2.36a3.49,3.49,0,0,1-.11-.68c0-.34.11-.53.61-.72a21.7,21.7,0,0,1,6.54-1.1c5.77,0,8.43,2.47,8.43,7.29v12c0,.61-.23.76-.68.91a25.43,25.43,0,0,1-7.52,1.06C197.29,33.59,194.4,31.08,194.4,27Zm8.7,2.13a12.45,12.45,0,0,0,2.89-.27V24.62h-3.08c-2.2,0-3.19.87-3.19,2.24S200.79,29.1,203.1,29.1Z"/>
          <path class="cls-2" d="M233.2,19.83V32.37a.72.72,0,0,1-.76.76h-3.87a.72.72,0,0,1-.76-.76V20.21c0-2.17-1-3.27-3.8-3.27a13.36,13.36,0,0,0-3.12.34V32.37a.72.72,0,0,1-.76.76h-3.87a.72.72,0,0,1-.76-.76V14.52c0-.72.23-.95.68-1.1a30.65,30.65,0,0,1,8.32-1.1C230.84,12.31,233.2,14.93,233.2,19.83Z"/>
        </g>
        <g>
          <path class="cls-2" d="M12.41,37.6H32.62a12.86,12.86,0,0,0,8.89-3.68h-38A12.44,12.44,0,0,0,12.41,37.6Z"/>
          <path class="cls-2" d="M49.74,25.52l3.41-6.29c.6-1,.27-1.57-.92-1.57H48.44a2.16,2.16,0,0,0-2.22,1l-2,2.71a12.58,12.58,0,0,0-11.65-8H30.88l-.43-2.22a3,3,0,0,0-3.2-2.44H25V4.17A4,4,0,0,0,20.86,0H16a.77.77,0,0,0-.81.49A6.88,6.88,0,0,0,15,2.06a4.79,4.79,0,0,0,.22,1.57c.11.33.33.49.81.49h3.31a1,1,0,0,1,1.19,1.19V8.72H17.77a2.94,2.94,0,0,0-3.2,2.44l-.43,2.22H12.46A12.4,12.4,0,0,0,0,25.52a12.18,12.18,0,0,0,2.11,6.72H43a19,19,0,0,0,1.35-2.55l2,2.71a2.2,2.2,0,0,0,2.22,1h3.79c1.14,0,1.46-.65.92-1.57Zm-37.55,0a2.89,2.89,0,0,1-2.87-2.87,2.94,2.94,0,0,1,2.87-2.93,2.94,2.94,0,0,1,2.87,2.93A2.86,2.86,0,0,1,12.19,25.52Zm10.29,0a2.89,2.89,0,0,1-2.87-2.87,2.94,2.94,0,0,1,2.87-2.93,3,3,0,0,1,2.93,2.93A2.9,2.9,0,0,1,22.49,25.52Zm10.29,0a2.89,2.89,0,0,1-2.87-2.87,2.87,2.87,0,1,1,5.74,0A2.86,2.86,0,0,1,32.78,25.52Z"/>
        </g>
      </g>
    </g>
  </g>
</svg>
