<?xml version="1.0" encoding="utf-8"?>
<!-- Generator: Adobe Illustrator 19.2.1, SVG Export Plug-In . SVG Version: 6.00 Build 0)  -->
<svg version="1.1" id="layer" xmlns="http://www.w3.org/2000/svg" xmlns:xlink="http://www.w3.org/1999/xlink" x="0px" y="0px"
	 viewBox="0 0 652 652" style="enable-background:new 0 0 652 652;" xml:space="preserve">
<style type="text/css">
	.st0{fill:#B30101;}
</style>
<path d="M21.5,260.3v76.5h56.3v-15.3H38.7v-61.2H21.5z M114.5,260.3v76.5H176v-15h-43.9v-16.1h38.1v-15h-38.1v-15.5h43.3v-15H114.5z
	 M239.5,260.3l-34.1,79.6h17.8l7.3-17.7h33.6l7.3,17.7h18.3l-34.1-79.6H239.5z M247.4,281.2l10.6,25.6h-21.1L247.4,281.2
	L247.4,281.2z M375.4,260.3v47.1l-37.1-47.1h-16v76.5h17.2v-48.6l38.3,48.6h14.8v-76.5H375.4z M489.7,336.8h18.1v-76.5h-18.1V336.8z
	 M604.3,260.3v47.1l-37.1-47.1h-16v76.5h17.2v-48.6l38.3,48.6h14.8v-76.5H604.3z"/>
<path class="st0" d="M489.7,380.7h131.8v-6.2H489.7V380.7z"/>
</svg>
